<svg width="1403" height="960" viewBox="0 0 1403 960" fill="none" xmlns="http://www.w3.org/2000/svg">
<rect x="883" y="489" width="49.08" height="17.6" transform="rotate(-158 883 489)" fill="#4488C5" fill-opacity="0.6"/>
<rect x="614" y="469" width="50.08" height="13.6" transform="rotate(39 614 469)" fill="#FDFF70" fill-opacity="0.35"/>
<rect x="398" y="361" width="12.08" height="14.6" transform="rotate(-93 398 361)" fill="#FDFF70" fill-opacity="0.9"/>
<rect x="951" y="796" width="33.08" height="14.6" transform="rotate(-2 951 796)" fill="#FF7272" fill-opacity="0.35"/>
<rect x="73" y="35" width="32.08" height="12.6" transform="rotate(62 73 35)" fill="#FF7272"/>
<rect x="268" y="864" width="41.08" height="17.6" transform="rotate(-68 268 864)" fill="#FDFF70" fill-opacity="0.65"/>
<rect x="694" y="613" width="52.08" height="9.6" transform="rotate(104 694 613)" fill="#FDFF70" fill-opacity="0.45"/>
<rect x="89" y="434" width="52.08" height="13.6" transform="rotate(-10 89 434)" fill="#4488C5" fill-opacity="0.85"/>
<rect x="677" y="850" width="19.08" height="15.6" transform="rotate(-78 677 850)" fill="#FF7272" fill-opacity="0.9"/>
<rect x="1109" y="939" width="34.08" height="14.6" transform="rotate(96 1109 939)" fill="#4488C5" fill-opacity="0.75"/>
<rect x="905" y="503" width="33.08" height="17.6" transform="rotate(-7 905 503)" fill="#4488C5"/>
<rect x="213" y="147" width="11.08" height="19.6" transform="rotate(-136 213 147)" fill="#FF7272" fill-opacity="0.75"/>
<rect x="1380" y="789" width="49.08" height="14.6" transform="rotate(-43 1380 789)" fill="#4488C5" fill-opacity="0.6"/>
<rect x="1328" y="193" width="46.08" height="12.6" transform="rotate(-111 1328 193)" fill="#FF7272" fill-opacity="0.9"/>
<rect x="187" y="818" width="13.08" height="9.6" transform="rotate(-148 187 818)" fill="#FDFF70" fill-opacity="0.35"/>
<rect x="261" y="547" width="16.08" height="11.6" transform="rotate(-144 261 547)" fill="#FF7272" fill-opacity="0.6"/>
<rect x="67" y="414" width="15.08" height="16.6" transform="rotate(13 67 414)" fill="#FF7272" fill-opacity="0.45"/>
<rect x="34" y="333" width="49.08" height="13.6" transform="rotate(-111 34 333)" fill="#4488C5" fill-opacity="0.35"/>
<rect x="386" y="736" width="38.08" height="12.6" transform="rotate(-52 386 736)" fill="#4488C5" fill-opacity="0.75"/>
<rect x="326" y="759" width="22.08" height="15.6" fill="#FF7272" fill-opacity="0.85"/>
<rect x="1026" y="98" width="25.08" height="19.6" transform="rotate(-105 1026 98)" fill="#FDFF70" fill-opacity="0.35"/>
<rect x="85" y="928" width="20.08" height="15.6" transform="rotate(-154 85 928)" fill="#FF7272" fill-opacity="0.85"/>
<rect x="378" y="579" width="15.08" height="13.6" transform="rotate(8 378 579)" fill="#FDFF70" fill-opacity="0.65"/>
<circle cx="818.1" cy="242.1" r="5.1" fill="#FF7272" fill-opacity="0.65"/>
<circle cx="528.1" cy="941.1" r="9.1" fill="#FDFF70" fill-opacity="0.65"/>
<circle cx="838.6" cy="838.6" r="5.6" fill="#FF7272" fill-opacity="0.35"/>
<circle cx="688.1" cy="181.1" r="9.1" fill="#FF7272"/>
<circle cx="62.6" cy="407.6" r="4.6" fill="#4488C5" fill-opacity="0.9"/>
<circle cx="335.1" cy="683.1" r="9.1" fill="#FF7272" fill-opacity="0.6"/>
<circle cx="606.6" cy="751.6" r="6.6" fill="#4488C5"/>
<circle cx="439.1" cy="868.1" r="10.1" fill="#4488C5" fill-opacity="0.35"/>
<circle cx="638.1" cy="465.1" r="8.1" fill="#4488C5"/>
<circle cx="1293.1" cy="829.1" r="5.1" fill="#4488C5" fill-opacity="0.9"/>
<circle cx="43.1" cy="521.1" r="6.1" fill="#4488C5" fill-opacity="0.35"/>
<circle cx="1064.1" cy="639.1" r="4.1" fill="#FF7272" fill-opacity="0.85"/>
<circle cx="1005.1" cy="152.1" r="7.1" fill="#4488C5"/>
<circle cx="49.6" cy="695.6" r="7.6" fill="#FF7272"/>
<circle cx="335.1" cy="584.1" r="8.1" fill="#FDFF70" fill-opacity="0.9"/>
<circle cx="1336.1" cy="121.1" r="8.1" fill="#4488C5" fill-opacity="0.65"/>
<circle cx="252.6" cy="341.6" r="7.6" fill="#4488C5" fill-opacity="0.75"/>
<circle cx="580.1" cy="347.1" r="8.1" fill="#4488C5" fill-opacity="0.6"/>
<circle cx="650.1" cy="242.1" r="10.1" fill="#4488C5" fill-opacity="0.9"/>
<circle cx="1065.1" cy="721.1" r="7.1" fill="#4488C5" fill-opacity="0.65"/>
<circle cx="581.6" cy="318.6" r="9.6" fill="#FDFF70" fill-opacity="0.6"/>
<circle cx="94.6" cy="956.6" r="5.6" fill="#FDFF70" fill-opacity="0.75"/>
<circle cx="102.6" cy="214.6" r="9.6" fill="#FDFF70" fill-opacity="0.6"/>
<path d="M794.378 715.353L793.535 699.27L808.571 693.498L818.706 706.014L809.935 719.521L794.378 715.353Z" fill="#FF7272"/>
<path d="M1108.86 358.215L1102.08 381.857L1085 364.165L1108.86 358.215Z" fill="#FF7272" fill-opacity="0.85"/>
<path d="M519.1 617.899L527.906 613.978L534.356 621.141L529.537 629.49L520.108 627.485L519.1 617.899Z" fill="#4488C5" fill-opacity="0.45"/>
<path d="M192.152 367.225L184.103 364.609L184.103 356.145L192.152 353.53L197.127 360.377L192.152 367.225Z" fill="#FF7272" fill-opacity="0.85"/>
<path d="M1065 928.861L1068.2 921.313L1076.34 920.314L1081.28 926.862L1078.07 934.411L1069.94 935.41L1065 928.861Z" fill="#4488C5" fill-opacity="0.45"/>
<path d="M748.143 149.357L763.07 149.096L767.931 163.213L756.007 172.198L743.778 163.634L748.143 149.357Z" fill="#FF7272" fill-opacity="0.9"/>
<path d="M1079.37 562.912L1083.83 549.193L1097.55 553.65L1093.09 567.369L1079.37 562.912Z" fill="#FDFF70" fill-opacity="0.45"/>
<path d="M13.166 842.681L27.2278 844.657L32.5472 857.823L23.8048 869.013L9.74303 867.036L4.42362 853.87L13.166 842.681Z" fill="#4488C5" fill-opacity="0.85"/>
<path d="M910.15 296.79L913.447 305.379L907.657 312.528L898.57 311.089L895.273 302.5L901.063 295.351L910.15 296.79Z" fill="#FDFF70" fill-opacity="0.45"/>
<path d="M562.189 220.421L570.168 228.978L566.747 240.166L555.347 242.798L547.368 234.241L550.789 223.053L562.189 220.421Z" fill="#4488C5" fill-opacity="0.6"/>
<path d="M403.51 750.538L397.291 738.332L404.752 726.842L418.433 727.559L424.653 739.766L417.191 751.255L403.51 750.538Z" fill="#FDFF70" fill-opacity="0.65"/>
<path d="M1062.7 691L1071.97 696.35V707.05L1062.7 712.4L1053.43 707.05V696.35L1062.7 691Z" fill="#FF7272" fill-opacity="0.9"/>
<path d="M170.592 208.693L164.392 218.615L152.699 218.207L147.206 207.876L153.406 197.954L165.099 198.362L170.592 208.693Z" fill="#FDFF70" fill-opacity="0.85"/>
<path d="M768.465 803.179L776.975 801.37L782.797 807.835L780.108 816.109L771.598 817.918L765.777 811.453L768.465 803.179Z" fill="#FF7272" fill-opacity="0.35"/>
<path d="M784.614 401.448L780.154 414.402L766.706 417.016L757.717 406.676L762.178 393.723L775.626 391.109L784.614 401.448Z" fill="#4488C5" fill-opacity="0.85"/>
<path d="M325.353 418.622L303.2 410.118L321.641 395.185L325.353 418.622Z" fill="#4488C5" fill-opacity="0.65"/>
<path d="M1377.15 -6.52178L1380.31 -15.6933L1389.83 -17.5442L1396.19 -10.2235L1393.03 -1.05195L1383.51 0.798899L1377.15 -6.52178Z" fill="#4488C5" fill-opacity="0.85"/>
<path d="M1382.36 328.232L1368.97 333.371L1359.94 322.226L1367.75 310.198L1381.6 313.909L1382.36 328.232Z" fill="#FDFF70"/>
<path d="M76.3 269L62.6 255.3L76.3 241.6L90 255.3L76.3 269Z" fill="#4488C5" fill-opacity="0.35"/>
<path d="M633.285 438.051L646.617 450.925L628.802 456.033L633.285 438.051Z" fill="#FF7272" fill-opacity="0.6"/>
<path d="M349.373 114.145L335.051 107.159L348.261 98.2485L349.373 114.145Z" fill="#FDFF70" fill-opacity="0.85"/>
<path d="M932.135 736.15L927.121 717.435L945.835 712.421L950.85 731.135L932.135 736.15Z" fill="#4488C5" fill-opacity="0.45"/>
<path d="M967.382 118.411L977.668 121.361L980.256 131.743L972.559 139.176L962.274 136.226L959.685 125.844L967.382 118.411Z" fill="#FDFF70" fill-opacity="0.75"/>
<path d="M721.868 589.85L715.55 584.162L708.189 588.412L711.646 580.647L705.329 574.959L713.783 575.847L717.24 568.082L719.008 576.396L727.462 577.285L720.1 581.535L721.868 589.85Z" fill="#FDFF70"/>
<path d="M1352.58 682.929L1351.87 687.89L1356.81 688.753L1352.16 690.625L1353.88 695.331L1349.94 692.241L1346.72 696.084L1347.42 691.123L1342.49 690.259L1347.14 688.387L1345.42 683.681L1349.36 686.771L1352.58 682.929Z" fill="#4488C5"/>
<path d="M416.332 524.15L417.495 518.678L412.65 515.881L418.214 515.296L419.377 509.824L421.652 514.935L427.216 514.35L423.058 518.093L425.334 523.204L420.489 520.407L416.332 524.15Z" fill="#FF7272" fill-opacity="0.35"/>
<path d="M226.944 659.743L216.467 657.765L208.145 664.43L210.123 653.953L203.458 645.631L213.935 647.61L222.257 640.944L220.278 651.421L226.944 659.743Z" fill="#FF7272" fill-opacity="0.45"/>
<path d="M1401.54 124.972L1401.38 133.834L1409.76 136.72L1401.29 139.312L1401.13 148.174L1396.05 140.913L1387.57 143.505L1392.9 136.426L1387.82 129.165L1396.2 132.051L1401.54 124.972Z" fill="#FF7272" fill-opacity="0.75"/>
<path d="M32.8394 761.801L39.1595 759.625L39.0428 752.942L43.0655 758.28L49.3855 756.104L45.5516 761.58L49.5742 766.918L43.1821 764.963L39.3482 770.439L39.2316 763.756L32.8394 761.801Z" fill="#FDFF70" fill-opacity="0.9"/>
<path d="M551.297 281.411L557.674 281.977L558.447 275.621L561.145 281.427L567.036 278.918L563.357 284.158L568.475 288.005L562.097 287.439L561.325 293.795L558.627 287.989L552.736 290.498L556.415 285.258L551.297 281.411Z" fill="#FF7272"/>
<path d="M1153.35 135.453L1149.16 142.428L1154.5 148.569L1146.57 146.739L1142.38 153.714L1141.67 145.607L1133.74 143.777L1141.23 140.597L1140.52 132.491L1145.86 138.632L1153.35 135.453Z" fill="#FF7272" fill-opacity="0.9"/>
<path d="M1044.63 212.328L1047.07 221.905L1055.93 226.285L1046.36 228.728L1041.98 237.588L1039.53 228.011L1030.67 223.63L1040.25 221.188L1044.63 212.328Z" fill="#FF7272" fill-opacity="0.75"/>
<path d="M183.622 226.647L178.201 234.995L184.465 242.73L174.85 240.154L169.429 248.502L168.908 238.562L159.294 235.986L168.586 232.419L168.065 222.479L174.329 230.214L183.622 226.647Z" fill="#FDFF70" fill-opacity="0.75"/>
<path d="M1397.15 816.722L1394.36 821.567L1398.1 825.725L1392.63 824.561L1389.83 829.406L1389.24 823.843L1383.77 822.679L1388.88 820.404L1388.3 814.84L1392.04 818.998L1397.15 816.722Z" fill="#FDFF70" fill-opacity="0.35"/>
<path d="M1155.13 308.516L1149.07 313.957L1154.31 320.187L1146.57 317.662L1143.8 325.316L1142.11 317.35L1134.1 318.774L1140.15 313.333L1134.91 307.102L1142.65 309.628L1145.43 301.973L1147.11 309.94L1155.13 308.516Z" fill="#FF7272" fill-opacity="0.6"/>
<path d="M366.934 69.2591L363.212 64.4833L358.318 68.0483L360.593 62.4374L355.059 59.9818L361.056 59.1467L360.415 53.1261L364.137 57.9018L369.031 54.3369L366.756 59.9477L372.29 62.4034L366.293 63.2385L366.934 69.2591Z" fill="#4488C5" fill-opacity="0.9"/>
<path d="M935.952 62.704L927.695 59.9102L920.199 64.3597L922.993 56.1028L918.544 48.6073L926.8 51.4011L934.296 46.9516L931.502 55.2085L935.952 62.704Z" fill="#FDFF70" fill-opacity="0.65"/>
<path d="M603.091 421.95L611.371 417.303L613.233 407.992L617.88 416.272L627.191 418.133L618.911 422.781L617.05 432.091L612.402 423.812L603.091 421.95Z" fill="#FF7272"/>
<path d="M1298.1 434.462L1304.31 437.107L1307.16 430.986L1307.97 437.687L1314.7 437.09L1309.3 441.146L1313.18 446.67L1306.97 444.025L1304.13 450.147L1303.31 443.445L1296.59 444.042L1301.98 439.986L1298.1 434.462Z" fill="#FDFF70" fill-opacity="0.75"/>
<path d="M741.316 867.553L734.337 868.533L733.113 875.474L730.024 869.14L723.045 870.12L728.114 865.225L725.025 858.891L731.247 862.199L736.317 857.304L735.093 864.244L741.316 867.553Z" fill="#FDFF70" fill-opacity="0.6"/>
<path d="M586.009 711.835L595.3 708.466L592.234 699.072L599.797 705.433L606.4 698.081L604.672 707.811L614.34 709.854L605.05 713.222L608.115 722.616L600.553 716.255L593.95 723.607L595.678 713.877L586.009 711.835Z" fill="#4488C5" fill-opacity="0.35"/>
<path d="M65.3584 411.813L71.044 417.114L77.8433 413.345L74.5578 420.391L80.2434 425.693L72.5273 424.746L69.2419 431.791L67.7585 424.16L60.0425 423.213L66.8418 419.444L65.3584 411.813Z" fill="#FF7272" fill-opacity="0.85"/>
<path d="M198.402 640.127L194.95 648.64L203.347 652.366L194.248 653.633L195.22 662.767L189.573 655.521L182.148 660.93L185.6 652.417L177.203 648.691L186.302 647.424L185.33 638.29L190.977 645.536L198.402 640.127Z" fill="#FF7272" fill-opacity="0.35"/>
<path d="M849.02 161.02L853.209 152.798L846.684 146.274L855.798 147.717L859.987 139.496L861.43 148.609L870.544 150.053L862.322 154.242L863.766 163.355L857.241 156.831L849.02 161.02Z" fill="#FF7272" fill-opacity="0.85"/>
<path d="M863.202 563.202L865.975 558.214L861.079 555.281L866.785 555.189L866.878 549.483L869.811 554.378L874.798 551.605L872.025 556.593L876.921 559.526L871.215 559.618L871.122 565.324L868.189 560.429L863.202 563.202Z" fill="#FDFF70" fill-opacity="0.85"/>
<path d="M594.464 154.156L599.898 150.77L596.69 145.23L602.339 148.243L605.533 142.694L605.749 149.093L612.151 149.085L606.717 152.471L609.926 158.011L604.276 154.998L601.082 160.547L600.867 154.148L594.464 154.156Z" fill="#FDFF70" fill-opacity="0.9"/>
</svg>
